<?xml version="1.0" encoding="utf-8"?>
<!-- Generator: Adobe Illustrator 16.0.0, SVG Export Plug-In . SVG Version: 6.00 Build 0)  -->
<!DOCTYPE svg PUBLIC "-//W3C//DTD SVG 1.1//EN" "http://www.w3.org/Graphics/SVG/1.1/DTD/svg11.dtd">
<svg version="1.1" id="Layer_1" xmlns="http://www.w3.org/2000/svg" xmlns:xlink="http://www.w3.org/1999/xlink" x="0px" y="0px"
	 width="445.628px" height="196.95px" viewBox="0 0 445.628 196.95" enable-background="new 0 0 445.628 196.95"
	 xml:space="preserve">
<g>
	<path d="M222.814,14.865l55.742,14.917l-23.092,17.734l46.178,46.177l-23.086,32.652l-1.629-1.629
		c-6.857-6.194-15.934-9.976-25.898-9.976c-10.971,0-20.861,4.582-27.896,11.923l55.421,55.421h-111.48h-0.001
		c-30.785-30.782-30.785-80.696,0-111.479v-0.001L222.814,14.865 M222.813,126.346L222.813,126.346L222.813,126.346 M222.815,0
		c-3.892,0-7.687,1.529-10.511,4.353l-55.742,55.74c-17.698,17.698-27.443,41.225-27.443,66.252c0,25.026,9.746,48.556,27.443,66.25
		c2.787,2.789,6.567,4.354,10.51,4.354h111.481c6.012,0,11.43-3.62,13.73-9.177c2.305-5.555,1.031-11.946-3.219-16.197
		l-41.693-41.693c1.197-0.184,2.42-0.277,3.656-0.277c5.783,0,11.338,2.1,15.684,5.917l1.33,1.334
		c2.803,2.799,6.586,4.353,10.512,4.353c0.422,0,0.84-0.018,1.262-0.053c4.365-0.373,8.346-2.652,10.875-6.231l23.086-32.651
		c4.182-5.909,3.496-13.972-1.623-19.09l-34.195-34.198l9.652-7.415c4.486-3.448,6.629-9.144,5.521-14.693
		c-1.105-5.55-5.268-9.99-10.732-11.454L226.66,0.505C225.388,0.165,224.097,0,222.815,0L222.815,0z"/>
	<rect y="65.31" fill="#ED1C24" width="445.628" height="66.33"/>
	<g opacity="0.5">
		<path fill="#FFFFFF" d="M301.642,93.694l-23.086,32.652l-1.629-1.629c-6.857-6.194-15.934-9.976-25.898-9.976
			c-10.971,0-20.861,4.582-27.896,11.923l4.974,4.976h21.021l-1.756-1.757c1.197-0.184,2.42-0.276,3.656-0.276
			c3.328,0,6.57,0.716,9.559,2.033h32.428l20.762-29.366c4.182-5.909,3.496-13.971-1.623-19.09l-17.873-17.873h-21.02
			L301.642,93.694z"/>
		<path fill="#FFFFFF" d="M167.073,70.607L167.073,70.607l5.293-5.295h-20.61c-14.633,16.982-22.637,38.387-22.637,61.035
			c0,1.772,0.062,3.537,0.16,5.294h14.903C142.717,109.74,150.333,87.346,167.073,70.607z"/>
	</g>
	<g>
		<path fill="#FFFFFF" d="M70.673,120.88h-5.264v-20.243H47.452v20.243h-5.234V77.084h5.234v18.83h17.958v-18.83h5.264V120.88z"/>
		<path fill="#FFFFFF" d="M93.083,99.072l9.986-21.988h6.317l-13.626,27.463l-0.09,16.333h-5.174l-0.09-16.333L76.779,77.084h6.347
			L93.083,99.072z"/>
		<path fill="#FFFFFF" d="M123.222,103.313v17.566h-5.565V77.084h14.198c1.965,0.041,3.825,0.351,5.58,0.933
			c1.754,0.582,3.294,1.424,4.617,2.526c1.324,1.103,2.371,2.467,3.144,4.091c0.771,1.625,1.158,3.489,1.158,5.595
			c0,2.106-0.387,3.966-1.158,5.58c-0.772,1.614-1.82,2.973-3.144,4.076c-1.323,1.103-2.863,1.945-4.617,2.526
			c-1.755,0.582-3.615,0.883-5.58,0.902H123.222z M123.222,98.741h8.633c1.283-0.02,2.466-0.226,3.549-0.617
			s2.025-0.947,2.828-1.669c0.802-0.722,1.429-1.599,1.88-2.632c0.451-1.033,0.677-2.211,0.677-3.534
			c0-1.324-0.226-2.517-0.677-3.58c-0.451-1.063-1.073-1.965-1.865-2.707c-0.792-0.742-1.734-1.313-2.827-1.715
			c-1.093-0.401-2.281-0.611-3.564-0.631h-8.633V98.741z"/>
		<path fill="#FFFFFF" d="M178.208,100.637h-18.289v15.521h21.327v4.723h-26.891V77.084h26.62v4.752h-21.056v14.077h18.289V100.637z
			"/>
		<path fill="#FFFFFF" d="M205.581,103.013h-8.753v17.867h-5.535V77.084h12.844c2.045,0.041,3.97,0.331,5.775,0.872
			c1.805,0.542,3.384,1.354,4.738,2.437c1.354,1.083,2.416,2.442,3.188,4.076c0.771,1.634,1.158,3.554,1.158,5.76
			c0,1.424-0.206,2.728-0.617,3.911c-0.412,1.184-0.978,2.256-1.7,3.218c-0.722,0.963-1.584,1.815-2.587,2.557
			c-1.003,0.742-2.105,1.374-3.309,1.896l9.294,18.709l-0.03,0.361h-5.866L205.581,103.013z M196.827,98.44h7.46
			c1.243-0.02,2.416-0.215,3.519-0.586c1.103-0.371,2.07-0.907,2.903-1.609c0.832-0.702,1.489-1.559,1.97-2.572
			c0.481-1.012,0.722-2.181,0.722-3.504c0-1.403-0.23-2.632-0.691-3.685c-0.462-1.053-1.104-1.935-1.925-2.647
			c-0.823-0.711-1.8-1.249-2.933-1.609c-1.133-0.361-2.372-0.551-3.715-0.571h-7.31V98.44z"/>
		<path fill="#FFFFFF" d="M256.416,107.705c-0.262,2.025-0.783,3.886-1.564,5.58c-0.783,1.694-1.801,3.148-3.053,4.361
			c-1.254,1.213-2.738,2.155-4.453,2.827s-3.623,1.008-5.73,1.008c-1.805,0-3.443-0.256-4.918-0.767
			c-1.473-0.512-2.787-1.219-3.939-2.121c-1.154-0.902-2.146-1.965-2.979-3.188c-0.832-1.223-1.523-2.557-2.074-4
			c-0.553-1.444-0.963-2.958-1.234-4.543c-0.27-1.583-0.416-3.188-0.436-4.813v-6.106c0.02-1.625,0.166-3.229,0.436-4.813
			c0.271-1.584,0.682-3.099,1.234-4.542c0.551-1.444,1.242-2.783,2.074-4.016c0.832-1.233,1.824-2.301,2.979-3.204
			c1.152-0.902,2.461-1.609,3.926-2.121c1.463-0.511,3.107-0.767,4.932-0.767c2.186,0,4.141,0.336,5.867,1.008
			c1.725,0.672,3.207,1.624,4.451,2.857c1.242,1.233,2.24,2.712,2.992,4.437c0.752,1.725,1.248,3.63,1.49,5.715h-5.564
			c-0.182-1.324-0.492-2.557-0.934-3.7s-1.033-2.146-1.775-3.008c-0.742-0.862-1.648-1.539-2.721-2.03
			c-1.074-0.491-2.342-0.737-3.807-0.737c-1.322,0-2.49,0.216-3.504,0.646c-1.012,0.432-1.885,1.018-2.617,1.76
			c-0.73,0.742-1.344,1.604-1.834,2.587c-0.492,0.983-0.887,2.026-1.188,3.128c-0.301,1.103-0.518,2.231-0.646,3.384
			c-0.131,1.153-0.197,2.271-0.197,3.354v6.166c0,1.083,0.066,2.201,0.197,3.354c0.129,1.153,0.346,2.286,0.646,3.398
			c0.301,1.113,0.691,2.161,1.172,3.144c0.482,0.982,1.094,1.85,1.836,2.602c0.74,0.752,1.613,1.344,2.617,1.775
			c1.002,0.431,2.174,0.646,3.518,0.646c1.465,0,2.732-0.23,3.807-0.692c1.072-0.461,1.979-1.107,2.721-1.939
			s1.334-1.815,1.775-2.948s0.752-2.361,0.934-3.685H256.416z"/>
		<path fill="#FFFFFF" d="M292.48,120.88h-5.264v-20.243h-17.959v20.243h-5.232V77.084h5.232v18.83h17.959v-18.83h5.264V120.88z"/>
		<path fill="#FFFFFF" d="M326.08,100.637h-18.289v15.521h21.326v4.723h-26.891V77.084h26.621v4.752h-21.057v14.077h18.289V100.637z
			"/>
		<path fill="#FFFFFF" d="M361.875,109.811c0-1.343-0.307-2.477-0.918-3.399c-0.611-0.922-1.398-1.699-2.361-2.331
			c-0.963-0.631-2.02-1.158-3.174-1.579c-1.152-0.421-2.26-0.802-3.322-1.143c-1.545-0.501-3.113-1.103-4.709-1.806
			c-1.594-0.701-3.047-1.563-4.361-2.586c-1.313-1.023-2.387-2.231-3.219-3.625c-0.832-1.394-1.248-3.033-1.248-4.918
			c0-1.885,0.416-3.569,1.248-5.053c0.832-1.484,1.92-2.737,3.264-3.76c1.344-1.023,2.869-1.8,4.572-2.332
			c1.705-0.531,3.42-0.797,5.145-0.797c1.904,0,3.74,0.316,5.504,0.947c1.766,0.632,3.328,1.519,4.693,2.662
			c1.363,1.143,2.455,2.527,3.277,4.151c0.822,1.625,1.254,3.439,1.295,5.445h-5.717c-0.16-1.264-0.471-2.411-0.932-3.444
			c-0.461-1.033-1.072-1.92-1.834-2.662c-0.764-0.742-1.67-1.318-2.723-1.729c-1.053-0.411-2.242-0.617-3.564-0.617
			c-1.063,0-2.102,0.15-3.113,0.451c-1.014,0.301-1.916,0.752-2.707,1.354c-0.793,0.602-1.424,1.344-1.895,2.226
			c-0.473,0.883-0.707,1.905-0.707,3.068c0.02,1.264,0.34,2.332,0.961,3.204c0.623,0.873,1.41,1.609,2.361,2.211
			c0.953,0.602,1.986,1.103,3.1,1.504c1.113,0.401,2.16,0.752,3.143,1.053c1.082,0.341,2.176,0.727,3.279,1.158
			c1.102,0.432,2.166,0.928,3.188,1.489c1.023,0.562,1.975,1.194,2.857,1.895c0.883,0.702,1.654,1.499,2.316,2.392
			s1.178,1.875,1.549,2.947c0.371,1.073,0.557,2.262,0.557,3.564c0,1.966-0.436,3.681-1.309,5.144c-0.871,1.465-2,2.683-3.383,3.655
			c-1.385,0.973-2.949,1.704-4.693,2.195s-3.488,0.737-5.234,0.737c-1.945,0-3.85-0.301-5.715-0.902s-3.533-1.469-5.008-2.602
			s-2.672-2.517-3.594-4.151c-0.924-1.634-1.414-3.494-1.475-5.58h5.686c0.18,1.364,0.551,2.572,1.113,3.625
			c0.561,1.053,1.283,1.945,2.164,2.677c0.883,0.732,1.9,1.284,3.055,1.654c1.152,0.372,2.41,0.557,3.773,0.557
			c1.084,0,2.152-0.135,3.205-0.406c1.053-0.271,1.988-0.691,2.813-1.263c0.82-0.572,1.492-1.294,2.014-2.166
			S361.875,111.014,361.875,109.811z"/>
		<path fill="#FFFFFF" d="M398.841,109.811c0-1.343-0.305-2.477-0.916-3.399c-0.613-0.922-1.398-1.699-2.361-2.331
			c-0.963-0.631-2.021-1.158-3.174-1.579c-1.154-0.421-2.262-0.802-3.324-1.143c-1.545-0.501-3.113-1.103-4.707-1.806
			c-1.594-0.701-3.049-1.563-4.361-2.586c-1.314-1.023-2.387-2.231-3.219-3.625c-0.832-1.394-1.248-3.033-1.248-4.918
			c0-1.885,0.416-3.569,1.248-5.053c0.832-1.484,1.92-2.737,3.264-3.76c1.344-1.023,2.867-1.8,4.572-2.332
			c1.703-0.531,3.418-0.797,5.143-0.797c1.906,0,3.74,0.316,5.506,0.947c1.764,0.632,3.328,1.519,4.691,2.662
			s2.457,2.527,3.279,4.151c0.822,1.625,1.252,3.439,1.293,5.445h-5.715c-0.16-1.264-0.471-2.411-0.932-3.444
			c-0.463-1.033-1.074-1.92-1.836-2.662c-0.762-0.742-1.67-1.318-2.723-1.729c-1.053-0.411-2.24-0.617-3.564-0.617
			c-1.063,0-2.1,0.15-3.113,0.451c-1.012,0.301-1.914,0.752-2.707,1.354c-0.791,0.602-1.424,1.344-1.895,2.226
			c-0.471,0.883-0.707,1.905-0.707,3.068c0.02,1.264,0.342,2.332,0.963,3.204c0.621,0.873,1.408,1.609,2.361,2.211
			c0.951,0.602,1.984,1.103,3.098,1.504c1.113,0.401,2.16,0.752,3.145,1.053c1.082,0.341,2.174,0.727,3.277,1.158
			c1.104,0.432,2.166,0.928,3.189,1.489c1.021,0.562,1.975,1.194,2.857,1.895c0.881,0.702,1.654,1.499,2.316,2.392
			c0.66,0.893,1.178,1.875,1.549,2.947c0.371,1.073,0.557,2.262,0.557,3.564c0,1.966-0.438,3.681-1.309,5.144
			c-0.873,1.465-2,2.683-3.385,3.655c-1.383,0.973-2.947,1.704-4.691,2.195c-1.746,0.491-3.49,0.737-5.234,0.737
			c-1.945,0-3.85-0.301-5.715-0.902s-3.535-1.469-5.008-2.602c-1.475-1.133-2.674-2.517-3.596-4.151
			c-0.922-1.634-1.414-3.494-1.473-5.58h5.684c0.182,1.364,0.553,2.572,1.113,3.625s1.283,1.945,2.166,2.677
			c0.883,0.732,1.9,1.284,3.053,1.654c1.152,0.372,2.412,0.557,3.775,0.557c1.082,0,2.15-0.135,3.203-0.406
			c1.053-0.271,1.99-0.691,2.813-1.263c0.822-0.572,1.494-1.294,2.016-2.166S398.841,111.014,398.841,109.811z"/>
	</g>
</g>
</svg>
