<?xml version="1.0" encoding="utf-8"?>
<!-- Generator: Adobe Illustrator 16.0.0, SVG Export Plug-In . SVG Version: 6.00 Build 0)  -->
<!DOCTYPE svg PUBLIC "-//W3C//DTD SVG 1.1 Tiny//EN" "http://www.w3.org/Graphics/SVG/1.1/DTD/svg11-tiny.dtd">
<svg version="1.1" baseProfile="tiny" xmlns="http://www.w3.org/2000/svg" xmlns:xlink="http://www.w3.org/1999/xlink" x="0px"
	 y="0px" width="1000px" height="1000px" viewBox="0 0 1000 1000" xml:space="preserve">
<g id="Layer_1" display="none">
	<rect display="inline" fill="#222236" width="1000" height="1000"/>
</g>
<g id="Layer_2">
	<path fill="#222236" d="M66.987,750"/>
	<path fill="#222236" d="M933.013,750"/>
	<path fill="#222236" d="M500,0"/>
	<g>
		<path fill="#EEEDF7" d="M651.323,454.545c5.025-14.218,7.77-29.515,7.77-45.454c0-15.937-2.742-31.231-7.768-45.448h98.668
			v-90.908H523.257c-0.175,0-0.35-0.006-0.527-0.006v0.006h-90.908l0.001-0.006h-90.907l-0.002,0.006h-72.732L250,363.644h72.732
			l-72.724,363.627h90.907l36.362-181.818H750v-90.908H651.323z M395.46,454.545l18.18-90.901h109.355
			c24.981,0.143,45.19,20.432,45.19,45.448c0,25.104-20.351,45.454-45.456,45.454H395.46z"/>
		<path fill="#EEEDF7" d="M704.548,590.908h-90.907c0,75.311,61.049,136.361,136.359,136.361v-90.908
			C724.898,636.361,704.548,616.01,704.548,590.908z"/>
	</g>
	<path fill="#EEEDF7" d="M500,80c56.735,0,111.73,11.094,163.459,32.973c50.003,21.15,94.928,51.445,133.526,90.042
		c38.598,38.598,68.892,83.522,90.042,133.526C908.906,388.27,920,443.265,920,500c0,56.735-11.094,111.73-32.973,163.459
		c-21.15,50.003-51.444,94.928-90.042,133.526c-38.599,38.598-83.523,68.892-133.526,90.042C611.73,908.906,556.735,920,500,920
		c-56.735,0-111.73-11.094-163.458-32.973c-50.004-21.15-94.929-51.444-133.526-90.042c-38.598-38.599-68.893-83.523-90.042-133.526
		C91.094,611.73,80,556.735,80,500c0-56.735,11.094-111.73,32.973-163.458c21.15-50.004,51.445-94.929,90.042-133.526
		s83.522-68.893,133.526-90.042C388.27,91.094,443.265,80,500,80 M500,0C223.857,0,0,223.857,0,500s223.857,500,500,500
		s500-223.857,500-500S776.143,0,500,0L500,0z"/>
</g>
<g id="Layer_3" display="none">
</g>
</svg>
