<?xml version="1.0" encoding="utf-8"?>
<!-- Generator: Adobe Illustrator 16.0.0, SVG Export Plug-In . SVG Version: 6.00 Build 0)  -->
<!DOCTYPE svg PUBLIC "-//W3C//DTD SVG 1.1//EN" "http://www.w3.org/Graphics/SVG/1.1/DTD/svg11.dtd">
<svg version="1.1" id="Layer_1" xmlns="http://www.w3.org/2000/svg" xmlns:xlink="http://www.w3.org/1999/xlink" x="0px" y="0px"
	 width="600px" height="600px" viewBox="0 0 600 600" enable-background="new 0 0 600 600" xml:space="preserve">
<g>
	
		<rect x="89.109" y="88.9" transform="matrix(-0.7071 -0.7071 0.7071 -0.7071 299.8094 723.0872)" fill="#222222" width="421.105" height="421.101"/>
	<g id="Layer_2">
		<path fill="#FFFFFF" d="M299.476,56.413L56.01,299.456l243.467,243.045l243.466-243.045L299.476,56.413z M397.621,250.467
			l9.866-29.54v32.822L397.621,250.467z M407.487,265.713l-0.002,133.539l-44.66-44.58l31.2-93.438L407.487,265.713z
			 M404.653,193.511l-17.818,53.37L220.81,191.636l181.965-0.001L404.653,193.511z M383.24,257.646L353.839,345.7l-147.01-146.755
			L383.24,257.646z M349.819,357.736l-50.342,150.767L198.789,206.97L349.819,357.736z M358.808,366.712l42.305,42.23
			l-84.608,84.462L358.808,366.712z M418.855,269.496l91.455,30.435l-91.456,91.298L418.855,269.496z M418.855,257.534
			l-0.001-49.849l74.904,74.773L418.855,257.534z M391.405,180.284H207.546l91.93-91.77L391.405,180.284z M185.306,202.484
			l97.142,290.918L88.165,299.456L185.306,202.484z"/>
	</g>
</g>
</svg>
