<?xml version="1.0" encoding="utf-8"?>
<!-- Generator: Adobe Illustrator 16.0.0, SVG Export Plug-In . SVG Version: 6.00 Build 0)  -->
<!DOCTYPE svg PUBLIC "-//W3C//DTD SVG 1.1//EN" "http://www.w3.org/Graphics/SVG/1.1/DTD/svg11.dtd">
<svg version="1.1" id="Layer_1" xmlns="http://www.w3.org/2000/svg" xmlns:xlink="http://www.w3.org/1999/xlink" x="0px" y="0px"
	 width="600px" height="600px" viewBox="0 0 600 600" enable-background="new 0 0 600 600" xml:space="preserve">
<rect x="87.808" y="87.809" transform="matrix(0.7071 0.7071 -0.7071 0.7071 299.7969 -124.1799)" fill="#EEEEEE" width="423.978" height="423.975"/>
<g id="Layer_1_1_">
</g>
<g id="Layer_2">
	<path d="M299.797,30.445L29.975,299.797l269.823,269.354l269.821-269.354L299.797,30.445z M408.566,245.506l10.934-32.738v36.375
		L408.566,245.506z M419.5,262.402l-0.002,147.994l-49.494-49.406l34.577-103.552L419.5,262.402z M416.36,182.384l-19.748,59.146
		l-183.997-61.225l201.664-0.001L416.36,182.384z M392.628,253.462l-32.583,97.585L197.12,188.406L392.628,253.462z M355.59,364.387
		l-55.792,167.087L188.21,197.3L355.59,364.387z M365.551,374.333l46.884,46.803l-93.767,93.604L365.551,374.333z M432.099,266.594
		l101.356,33.729L432.098,401.505L432.099,266.594z M432.099,253.337l-0.001-55.245l83.013,82.867L432.099,253.337z
		 M401.678,167.725H197.915L299.797,66.021L401.678,167.725z M173.268,192.328l107.658,322.41L65.611,299.797L173.268,192.328z"/>
</g>
<g id="Layer_3">
</g>
</svg>
