<?xml version="1.0" encoding="utf-8"?>
<!-- Generator: Adobe Illustrator 16.0.0, SVG Export Plug-In . SVG Version: 6.00 Build 0)  -->
<!DOCTYPE svg PUBLIC "-//W3C//DTD SVG 1.1//EN" "http://www.w3.org/Graphics/SVG/1.1/DTD/svg11.dtd">
<svg version="1.1" xmlns="http://www.w3.org/2000/svg" xmlns:xlink="http://www.w3.org/1999/xlink" x="0px" y="0px" width="600px"
	 height="600px" viewBox="0 0 600 600" enable-background="new 0 0 600 600" xml:space="preserve">
<g id="Layer_1">
</g>
<g id="Layer_2">
	<path d="M300.02,1.687L0.687,300.499l299.334,298.814L599.354,300.5L300.02,1.687z M420.688,240.271l12.127-36.318v40.354
		L420.688,240.271z M432.814,259.015v164.179l-54.907-54.809l38.36-114.877L432.814,259.015z M429.334,170.244l-21.91,65.615
		l-204.119-67.921l223.718-0.001L429.334,170.244z M403.005,249.097l-36.148,108.257L186.115,176.925L403.005,249.097z
		 M361.916,372.153l-61.895,185.362L176.229,186.792L361.916,372.153z M372.966,383.188l52.013,51.92L320.956,538.95
		L372.966,383.188z M446.792,263.666l112.443,37.416L446.792,413.33V263.666z M446.792,248.958v-61.287l92.091,91.93
		L446.792,248.958z M413.044,153.982l-226.049,0.001L300.02,41.155L413.044,153.982z M159.654,181.276l119.432,357.672
		L40.223,300.499L159.654,181.276z"/>
</g>
<g id="Layer_3">
</g>
</svg>
