<?xml version="1.0" encoding="utf-8"?>
<!-- Generator: Adobe Illustrator 16.0.0, SVG Export Plug-In . SVG Version: 6.00 Build 0)  -->
<!DOCTYPE svg PUBLIC "-//W3C//DTD SVG 1.1//EN" "http://www.w3.org/Graphics/SVG/1.1/DTD/svg11.dtd">
<svg version="1.1" id="Layer_2" xmlns="http://www.w3.org/2000/svg" xmlns:xlink="http://www.w3.org/1999/xlink" x="0px" y="0px"
	 width="300px" height="300px" viewBox="0 0 300 300" enable-background="new 0 0 300 300" xml:space="preserve">
<rect fill="#F1F2F2" width="300" height="300"/>
<polygon fill="#BE1E2D" points="150.283,150 152.757,-6.311 260.865,13.284 "/>
<polygon opacity="0.4" points="150.283,150 275.054,27.473 303.095,55.852 "/>
<polygon fill="#BE1E2D" points="309.852,76.122 150.283,150 313.229,185.919 "/>
<polygon opacity="0.8" points="311.203,193.014 150.283,150 221.337,311.934 "/>
<polygon opacity="0.9" fill="#BE1E2D" points="198.363,311.934 111.54,311.934 150.283,150 "/>
<polygon opacity="0.3" points="104.783,311.934 68.634,293.69 150.283,150 "/>
<polygon opacity="0.9" fill="#BE1E2D" points="63.904,290.649 21.336,243.015 150.283,150 "/>
<polygon opacity="0.7" fill="#BE1E2D" points="-6.028,234.906 -19.879,88.736 150.283,150 "/>
<polygon opacity="0.4" points="2.418,77.475 85.81,-19.146 150.283,150 "/>
<polygon opacity="0.7" points="102.08,-0.284 142.958,-7.998 150.283,150 "/>
</svg>
